<svg xmlns="http://www.w3.org/2000/svg" width="256" height="256" viewBox="0 0 100 100"><rect width="100" height="100" rx="20" fill="#603aba"></rect><path d="M19.13 50.04Q19.13 40.68 23.18 33.35Q27.23 26.01 34.48 21.92Q41.72 17.82 50.90 17.82L50.90 17.82Q62.15 17.82 70.16 23.76Q78.17 29.70 80.87 39.96L80.87 39.96L63.95 39.96Q62.06 36.00 58.59 33.93Q55.13 31.86 50.72 31.86L50.72 31.86Q43.61 31.86 39.20 36.81Q34.79 41.76 34.79 50.04L34.79 50.04Q34.79 58.32 39.20 63.27Q43.61 68.22 50.72 68.22L50.72 68.22Q55.13 68.22 58.59 66.16Q62.06 64.08 63.95 60.13L63.95 60.13L80.87 60.13Q78.17 70.38 70.16 76.28Q62.15 82.17 50.90 82.17L50.90 82.17Q41.72 82.17 34.48 78.08Q27.23 73.98 23.18 66.69Q19.13 59.40 19.13 50.04L19.13 50.04Z" fill="#fff"></path></svg>